<?xml version="1.0" encoding="UTF-8"?>
<!DOCTYPE svg PUBLIC "-//W3C//DTD SVG 1.1//EN" "http://www.w3.org/Graphics/SVG/1.1/DTD/svg11.dtd">
<svg xmlns="http://www.w3.org/2000/svg" version="1.1" width="512px" height="512px" style="shape-rendering:geometricPrecision; text-rendering:geometricPrecision; image-rendering:optimizeQuality; fill-rule:evenodd; clip-rule:evenodd" xmlns:xlink="http://www.w3.org/1999/xlink">
<g><path style="opacity:0.999" fill="#8191a5" d="M 57.5,-0.5 C 189.5,-0.5 321.5,-0.5 453.5,-0.5C 485.167,6.5 504.5,25.8333 511.5,57.5C 511.5,189.5 511.5,321.5 511.5,453.5C 507.37,474.235 496.37,490.402 478.5,502C 470.485,506.355 462.152,509.521 453.5,511.5C 321.5,511.5 189.5,511.5 57.5,511.5C 26.5,503.833 7.16667,484.5 -0.5,453.5C -0.5,321.5 -0.5,189.5 -0.5,57.5C 6.5,25.8333 25.8333,6.5 57.5,-0.5 Z"/></g>
<g><path style="opacity:1" fill="#fefffe" d="M 186.5,169.5 C 236.167,169.5 285.833,169.5 335.5,169.5C 335.5,219.167 335.5,268.833 335.5,318.5C 285.833,318.5 236.167,318.5 186.5,318.5C 186.5,268.833 186.5,219.167 186.5,169.5 Z"/></g>
</svg>
